<?xml version="1.0" encoding="UTF-8" standalone="no"?>
<!-- Created with Inkscape (http://www.inkscape.org/) -->

<svg
   xmlns:dc="http://purl.org/dc/elements/1.1/"
   xmlns:cc="http://creativecommons.org/ns#"
   xmlns:rdf="http://www.w3.org/1999/02/22-rdf-syntax-ns#"
   xmlns:svg="http://www.w3.org/2000/svg"
   xmlns="http://www.w3.org/2000/svg"
   xmlns:xlink="http://www.w3.org/1999/xlink"
   xmlns:sodipodi="http://sodipodi.sourceforge.net/DTD/sodipodi-0.dtd"
   xmlns:inkscape="http://www.inkscape.org/namespaces/inkscape"
   width="225"
   height="350"
   id="svg13810"
   version="1.1"
   inkscape:version="0.48.2 r9819"
   sodipodi:docname="base.svg"
   inkscape:export-filename="./base.png"
   inkscape:export-xdpi="90"
   inkscape:export-ydpi="90">
  <defs
     id="defs13812">
    <inkscape:perspective
       sodipodi:type="inkscape:persp3d"
       inkscape:vp_x="0 : 160 : 1"
       inkscape:vp_y="0 : 1000 : 0"
       inkscape:vp_z="2640 : 160 : 1"
       inkscape:persp3d-origin="1320 : 106.66667 : 1"
       id="perspective3726" />
    <linearGradient
       inkscape:collect="always"
       xlink:href="#linearGradient8468-7-4"
       id="linearGradient11489"
       gradientUnits="userSpaceOnUse"
       gradientTransform="matrix(1.5384614,0,0,1.3333333,-66.153839,473.33326)"
       x1="97"
       y1="-1902"
       x2="230"
       y2="-2020" />
    <linearGradient
       inkscape:collect="always"
       id="linearGradient8468-7-4">
      <stop
         style="stop-color:#ffffff;stop-opacity:1;"
         offset="0"
         id="stop8470-1-5" />
      <stop
         style="stop-color:#000000;stop-opacity:1"
         offset="1"
         id="stop8472-2-3" />
    </linearGradient>
    <linearGradient
       inkscape:collect="always"
       xlink:href="#linearGradient4896-9-5-0"
       id="linearGradient11539"
       gradientUnits="userSpaceOnUse"
       gradientTransform="matrix(1.2,0,0,1,0,1152.3622)"
       x1="0"
       y1="-170"
       x2="20"
       y2="-170" />
    <linearGradient
       inkscape:collect="always"
       id="linearGradient4896-9-5-0">
      <stop
         style="stop-color:#ff0101;stop-opacity:1;"
         offset="0"
         id="stop4898-6-5-8" />
      <stop
         style="stop-color:#f0ff01;stop-opacity:1"
         offset="1"
         id="stop4900-7-7-3" />
    </linearGradient>
    <linearGradient
       inkscape:collect="always"
       xlink:href="#linearGradient4908-8-3-7"
       id="linearGradient11541"
       gradientUnits="userSpaceOnUse"
       gradientTransform="matrix(1.275,0,0,1,-49.5,1152.3622)"
       x1="0"
       y1="-170"
       x2="20"
       y2="-170" />
    <linearGradient
       id="linearGradient4908-8-3-7"
       inkscape:collect="always">
      <stop
         id="stop4910-1-5-7"
         offset="0"
         style="stop-color:#01ff1f;stop-opacity:1" />
      <stop
         id="stop4912-3-34-9"
         offset="1"
         style="stop-color:#f0ff01;stop-opacity:1" />
    </linearGradient>
    <linearGradient
       inkscape:collect="always"
       xlink:href="#linearGradient4920-3-9-3"
       id="linearGradient11543"
       gradientUnits="userSpaceOnUse"
       gradientTransform="matrix(1.275,0,0,1,49.499997,1152.3622)"
       x1="0"
       y1="-170"
       x2="20"
       y2="-170" />
    <linearGradient
       inkscape:collect="always"
       id="linearGradient4920-3-9-3">
      <stop
         style="stop-color:#01ff1f;stop-opacity:1"
         offset="0"
         id="stop4922-5-2-9" />
      <stop
         style="stop-color:#01d2ff;stop-opacity:1"
         offset="1"
         id="stop4924-5-1-1" />
    </linearGradient>
    <linearGradient
       inkscape:collect="always"
       xlink:href="#linearGradient4931-3-8-1"
       id="linearGradient11545"
       gradientUnits="userSpaceOnUse"
       gradientTransform="matrix(1.2,0,0,1,-99,1152.3622)"
       x1="0"
       y1="-170"
       x2="20"
       y2="-170" />
    <linearGradient
       id="linearGradient4931-3-8-1"
       inkscape:collect="always">
      <stop
         id="stop4933-2-2-0"
         offset="0"
         style="stop-color:#0101ff;stop-opacity:1" />
      <stop
         id="stop4935-3-77-4"
         offset="1"
         style="stop-color:#01d2ff;stop-opacity:1" />
    </linearGradient>
    <linearGradient
       inkscape:collect="always"
       xlink:href="#linearGradient4941-3-3-2"
       id="linearGradient11547"
       gradientUnits="userSpaceOnUse"
       gradientTransform="matrix(1.275,0,0,1,98.999997,1152.3622)"
       x1="0"
       y1="-170"
       x2="20"
       y2="-170" />
    <linearGradient
       inkscape:collect="always"
       id="linearGradient4941-3-3-2">
      <stop
         style="stop-color:#0101ff;stop-opacity:1"
         offset="0"
         id="stop4943-4-5-5" />
      <stop
         style="stop-color:#ff01f0;stop-opacity:1"
         offset="1"
         id="stop4945-3-1-3" />
    </linearGradient>
    <linearGradient
       inkscape:collect="always"
       xlink:href="#linearGradient4951-2-5-1"
       id="linearGradient11549"
       gradientUnits="userSpaceOnUse"
       gradientTransform="matrix(1.275,0,0,1,-150,1152.3622)"
       x1="0"
       y1="-170"
       x2="20"
       y2="-170" />
    <linearGradient
       id="linearGradient4951-2-5-1"
       inkscape:collect="always">
      <stop
         id="stop4953-4-2-4"
         offset="0"
         style="stop-color:#ff0101;stop-opacity:1" />
      <stop
         id="stop4955-0-1-4"
         offset="1"
         style="stop-color:#ff01f0;stop-opacity:1" />
    </linearGradient>
    <linearGradient
       inkscape:collect="always"
       xlink:href="#linearGradient4951-2"
       id="linearGradient3084"
       gradientUnits="userSpaceOnUse"
       gradientTransform="matrix(1.25,0,0,1,-150,1152.3622)"
       x1="0"
       y1="-170"
       x2="20"
       y2="-170" />
    <linearGradient
       id="linearGradient4951-2"
       inkscape:collect="always">
      <stop
         id="stop4953-4"
         offset="0"
         style="stop-color:#ff0101;stop-opacity:1" />
      <stop
         id="stop4955-0"
         offset="1"
         style="stop-color:#ff01f0;stop-opacity:1" />
    </linearGradient>
  </defs>
  <sodipodi:namedview
     id="base"
     pagecolor="#ffffff"
     bordercolor="#666666"
     borderopacity="1.0"
     inkscape:pageopacity="0.0"
     inkscape:pageshadow="2"
     inkscape:zoom="2.8284271"
     inkscape:cx="133.196"
     inkscape:cy="244.42141"
     inkscape:document-units="px"
     inkscape:current-layer="layer1"
     showgrid="true"
     inkscape:window-width="1280"
     inkscape:window-height="756"
     inkscape:window-x="36"
     inkscape:window-y="0"
     inkscape:window-maximized="0"
     showguides="false"
     inkscape:snap-nodes="true"
     inkscape:snap-bbox="true"
     fit-margin-top="0"
     fit-margin-left="0"
     fit-margin-right="0"
     fit-margin-bottom="0"
     inkscape:guide-bbox="true"
     inkscape:object-nodes="true"
     inkscape:bbox-nodes="true"
     inkscape:snap-smooth-nodes="true"
     inkscape:object-paths="true"
     inkscape:snap-global="true">
    <inkscape:grid
       type="xygrid"
       id="grid14186"
       empspacing="1"
       visible="true"
       enabled="true"
       snapvisiblegridlinesonly="true"
       spacingx="40px"
       spacingy="40px"
       color="#000000"
       opacity="0.03921569"
       empcolor="#000000"
       empopacity="0.1254902" />
    <inkscape:grid
       type="xygrid"
       id="grid14643"
       empspacing="5"
       visible="true"
       enabled="true"
       snapvisiblegridlinesonly="true"
       color="#000000"
       opacity="0.0627451"
       empcolor="#000000"
       empopacity="0.1254902" />
    <sodipodi:guide
       orientation="0,1"
       position="405,290"
       id="guide11079" />
    <sodipodi:guide
       orientation="1,0"
       position="420,275"
       id="guide11081" />
    <sodipodi:guide
       orientation="0,1"
       position="2072,330"
       id="guide3633" />
    <sodipodi:guide
       orientation="0,1"
       position="1980,240"
       id="guide3696" />
    <sodipodi:guide
       orientation="0,1"
       position="1980,260"
       id="guide3698" />
    <sodipodi:guide
       orientation="0,1"
       position="1980,220"
       id="guide3700" />
    <sodipodi:guide
       orientation="1,0"
       position="1300,320"
       id="guide3827" />
    <sodipodi:guide
       position="360,110"
       orientation="40,0"
       id="guide3106" />
    <sodipodi:guide
       position="360,70"
       orientation="0,40"
       id="guide3108" />
    <sodipodi:guide
       position="400,70"
       orientation="-40,0"
       id="guide3110" />
    <sodipodi:guide
       position="400,110"
       orientation="0,-40"
       id="guide3112" />
  </sodipodi:namedview>
  <metadata
     id="metadata13815">
    <rdf:RDF>
      <cc:Work
         rdf:about="">
        <dc:format>image/svg+xml</dc:format>
        <dc:type
           rdf:resource="http://purl.org/dc/dcmitype/StillImage" />
        <dc:title></dc:title>
      </cc:Work>
    </rdf:RDF>
  </metadata>
  <g
     inkscape:groupmode="layer"
     id="layer3"
     inkscape:label="ground"
     style="display:none">
    <rect
       style="opacity:0.5;color:#000000;fill:#cccccc;fill-opacity:1;fill-rule:nonzero;stroke:none;stroke-width:1;marker:none;visibility:visible;display:inline;overflow:visible;enable-background:accumulate"
       id="rect15427"
       width="225"
       height="320"
       x="0"
       y="0" />
  </g>
  <g
     inkscape:label="sprite"
     inkscape:groupmode="layer"
     id="layer1"
     transform="translate(0.70710677,-12.36218)"
     style="display:inline">
    <path
       style="font-size:medium;font-style:normal;font-variant:normal;font-weight:normal;font-stretch:normal;text-indent:0;text-align:start;text-decoration:none;line-height:normal;letter-spacing:normal;word-spacing:normal;text-transform:none;direction:ltr;block-progression:tb;writing-mode:lr-tb;text-anchor:start;baseline-shift:baseline;color:#000000;fill:#3bb2d0;fill-opacity:1;fill-rule:nonzero;stroke:none;stroke-width:40;marker:none;visibility:visible;display:inline;overflow:visible;enable-background:accumulate;font-family:Sans;-inkscape-font-specification:Sans"
       d="m 21.792893,37.76218 c -0.3786,-0.002 -0.76128,0.10011 -1.09375,0.28125 L 0.44914323,49.19968 c -0.35077,0.19261 -0.63981,0.4685 -0.84375,0.8125 -0.20394,0.34399 -0.31184,0.75608 -0.3125,1.15625 l 0,22.6875 c 0.001,0.80034 0.45471,1.58354 1.15625,1.96875 L 20.699143,86.98093 c 0.3301,0.1812 0.7174,0.28125 1.09375,0.28125 0.37637,0 0.76366,-0.10005 1.09375,-0.28125 l 20.25,-11.15625 c 0.70154,-0.38521 1.15494,-1.16841 1.15625,-1.96875 l 0,-22.6875 c -6.1e-4,-0.40017 -0.10856,-0.81226 -0.3125,-1.15625 -0.20393,-0.344 -0.49298,-0.61989 -0.84375,-0.8125 l -20.25,-11.15625 c -0.32835,-0.17889 -0.71982,-0.28113 -1.09375,-0.28125 z m 0,4.5625 c 0.0953,10e-4 0.18722,0.0248 0.3125,0.0937 1.23824,0.682 2.48268,1.37658 3.71875,2.0625 0.34271,0.19017 0.46875,0.4677 0.46875,0.90625 l 0,2.03125 c 0,0.43305 -0.13596,0.71695 -0.46875,0.90625 l -1.09375,0.65625 0,0.46875 c 0,0.675 -0.24119,0.90625 -0.90625,0.90625 l -0.28125,0 -1.875,-2.21875 c -0.19522,-0.23084 -0.3125,-0.38251 -0.3125,-0.8125 l 0,-4.40625 c 0,-0.32797 0.15177,-0.5969 0.4375,-0.59375 z m -2.375,1.3125 c 0.21689,0.0163 0.34375,0.23496 0.34375,0.59375 l 0,1.25 c 0,0.33946 -0.0625,0.49288 -0.1875,0.65625 l -1.46875,1.75 -0.25,0.28125 c -0.24881,0.29689 -0.5625,0.20248 -0.5625,-0.21875 l 0,-2.5625 c 0,-0.42879 0.10603,-0.74052 0.4375,-0.90625 l 1.4375,-0.78125 c 0.0888,-0.0486 0.17771,-0.0679 0.25,-0.0625 z m -4.125,2.25 c 0.23928,-0.0198 0.4375,0.15288 0.4375,0.53125 l 0,4.28125 2,1.125 c 0.34331,0.18906 0.46875,0.4677 0.46875,0.90625 l 0,0.8125 -1.4375,0.8125 -1.53125,-1.84375 -2.84375,1.5625 c -0.55774,0.30715 -0.70172,0.62506 -0.125,0.9375 l 2.3125,1.25 c 0.34332,0.18907 0.46875,0.49895 0.46875,0.9375 l 0,0.46875 1.125,0.625 0,-1.625 c 0,-0.45 -0.0176,-0.7313 0.46875,-1 l 2.28125,-1.28125 2.125,2.53125 -2.75,1.53125 c -1.81215,2.16248 -3.61157,4.31799 -5.4375,6.46875 -0.22031,0.26169 -0.456,0.34623 -0.6875,0.21875 -1.27473,-0.70199 -2.3284098,-1.28442 -3.5624998,-1.96875 l -2.34375,2.875 c 0.89812,0.49368 1.7916,0.97105 2.6875,1.46875 0.34263,0.19034 0.46875,0.4677 0.46875,0.90625 l 0,1.65625 4.7187498,2.59375 c 0.86382,0.47419 1.46875,2.21875 1.46875,2.21875 l 3.53125,1.9375 c 0.34333,0.18906 0.46875,0.49895 0.46875,0.9375 l 0,0.8125 c -0.0132,0.3835 -0.0656,0.69202 -0.34375,0.84375 l -1.46875,0.8125 c -0.19957,0.10891 -0.46209,0.0756 -0.65625,-0.0312 l -8.4687498,-4.6563 c -0.3433,-0.18907 -0.46875,-0.49895 -0.46875,-0.9375 l 0,-0.28125 2.0312498,-2.40625 -5.9687498,-3.28125 c -0.34331,-0.18906 -0.46875,-0.46273 -0.46875,-0.90625 l 0,-11.125 0,-1.28125 0,-1.875 0,-0.625 c 0,-0.43855 0.12544,-0.74843 0.46875,-0.9375 l 0.4375,-0.21875 c 3.48921,-1.91597 10.3437498,-5.6875 10.3437498,-5.6875 0.0831,-0.0457 0.17024,-0.0872 0.25,-0.0937 z m 18.75,3.21875 c 0.13538,0 0.29609,0.0633 0.53125,0.1875 1.57804,0.87208 3.17006,1.72514 4.75,2.59375 0.34332,0.18907 0.46875,0.49895 0.46875,0.9375 l 0,10.8125 -0.8125,-0.9375 c -0.2505,-0.29666 -0.50118,-0.30907 -0.78125,-0.15625 l -0.96875,0.53125 2.21875,2.625 c 0.21482,0.25506 0.34375,0.39113 0.34375,0.84375 l 0,5.65625 c 0,0.43855 -0.12538,0.71728 -0.46875,0.90625 l -6.0625,3.34375 c -0.25885,0.14247 -0.52001,0.11573 -0.75,-0.15625 -0.81823,-0.96762 -1.77287,-2.04855 -2.6875,-3.15625 -0.67515,0.37338 -1.35454,0.78189 -2.03125,1.125 -0.34526,0.17506 -0.56773,0.18655 -0.90625,0 -0.59763,-0.32933 -1.24469,-0.67807 -1.90625,-1.0625 -0.33887,-0.19691 -0.46875,-0.4677 -0.46875,-0.90625 -0.002,-1.07567 -0.0333,-2.15381 -0.0312,-3.25 6.2e-4,-0.36632 0.15218,-0.74772 0.46875,-1.125 l 3.59375,-4.28125 -1.34375,0 c -0.45,0 -0.90625,-0.45625 -0.90625,-0.90625 l 0,-1.25 c 0,-0.43855 0.12581,-0.7165 0.46875,-0.90625 0.22031,-0.1219 1.125,-0.625 1.125,-0.625 l -0.0312,-2.5 c -8.1e-4,-0.31457 0.10423,-0.70535 0.46875,-0.90625 l 3.375,-1.84375 0,-3.75 c 0,-0.43855 0.12606,-0.71605 0.46875,-0.90625 0.41949,-0.23258 0.93226,-0.52127 1.40625,-0.78125 0.20425,-0.10809 0.32806,-0.15625 0.46875,-0.15625 z m -5.5,14.53125 2.5,1.375 5.375,-2.96875 0,-2.75 -2,1.09375 c -0.27958,0.15471 -0.56256,0.16623 -0.8125,-0.125 l -0.6875,-0.84375 c -0.22031,-0.2617 -0.47384,-0.31807 -0.71875,-0.21875 l -2.625,1.4375 z"
       id="path5629-7-4-6-2"
       inkscape:connector-curvature="0"
       sodipodi:nodetypes="ccccccccsccccccccccsssccssccsscccsscccssccccsccsccccccsccsccccccccssccccscccccscccscccscccccsccscccccssccscsccccccssscccccsccscccccccccc"
       inkscape:export-filename="/Users/saman/Dropbox/mapbox-redesign/sketch.png"
       inkscape:export-xdpi="90"
       inkscape:export-ydpi="90" />
    <path
       inkscape:export-ydpi="90"
       inkscape:export-xdpi="90"
       inkscape:export-filename="/Users/saman/Dropbox/mapbox-redesign/sketch.png"
       sodipodi:nodetypes="ccccccccsccccccccccsssccssccsscccsscccssccccsccsccccccsccsccccccccssccccscccccscccscccscccccsccscccccssccscsccccccssscccccsccscccccccccc"
       inkscape:connector-curvature="0"
       id="path11048"
       d="m 21.792893,107.76218 c -0.3786,-0.002 -0.76128,0.10011 -1.09375,0.28125 L 0.44914323,119.19968 c -0.35077,0.19261 -0.63981,0.4685 -0.84375,0.8125 -0.20394,0.34399 -0.31184,0.75608 -0.3125,1.15625 l 0,22.6875 c 0.001,0.80034 0.45471,1.58354 1.15625,1.96875 L 20.699143,156.98093 c 0.3301,0.1812 0.7174,0.28125 1.09375,0.28125 0.37637,0 0.76366,-0.10005 1.09375,-0.28125 l 20.25,-11.15625 c 0.70154,-0.38521 1.15494,-1.16841 1.15625,-1.96875 l 0,-22.6875 c -6.1e-4,-0.40017 -0.10856,-0.81226 -0.3125,-1.15625 -0.20393,-0.344 -0.49298,-0.61989 -0.84375,-0.8125 l -20.25,-11.15625 c -0.32835,-0.17889 -0.71982,-0.28113 -1.09375,-0.28125 z m 0,4.5625 c 0.0953,0.001 0.18722,0.0248 0.3125,0.0937 1.23824,0.682 2.48268,1.37658 3.71875,2.0625 0.34271,0.19017 0.46875,0.4677 0.46875,0.90625 l 0,2.03125 c 0,0.43305 -0.13596,0.71695 -0.46875,0.90625 l -1.09375,0.65625 0,0.46875 c 0,0.675 -0.24119,0.90625 -0.90625,0.90625 l -0.28125,0 -1.875,-2.21875 c -0.19522,-0.23084 -0.3125,-0.38251 -0.3125,-0.8125 l 0,-4.40625 c 0,-0.32797 0.15177,-0.5969 0.4375,-0.59375 z m -2.375,1.3125 c 0.21689,0.0163 0.34375,0.23496 0.34375,0.59375 l 0,1.25 c 0,0.33946 -0.0625,0.49288 -0.1875,0.65625 l -1.46875,1.75 -0.25,0.28125 c -0.24881,0.29689 -0.5625,0.20248 -0.5625,-0.21875 l 0,-2.5625 c 0,-0.42879 0.10603,-0.74052 0.4375,-0.90625 l 1.4375,-0.78125 c 0.0888,-0.0486 0.17771,-0.0679 0.25,-0.0625 z m -4.125,2.25 c 0.23928,-0.0198 0.4375,0.15288 0.4375,0.53125 l 0,4.28125 2,1.125 c 0.34331,0.18906 0.46875,0.4677 0.46875,0.90625 l 0,0.8125 -1.4375,0.8125 -1.53125,-1.84375 -2.84375,1.5625 c -0.55774,0.30715 -0.70172,0.62506 -0.125,0.9375 l 2.3125,1.25 c 0.34332,0.18907 0.46875,0.49895 0.46875,0.9375 l 0,0.46875 1.125,0.625 0,-1.625 c 0,-0.45 -0.0176,-0.7313 0.46875,-1 l 2.28125,-1.28125 2.125,2.53125 -2.75,1.53125 c -1.81215,2.16248 -3.61157,4.31799 -5.4375,6.46875 -0.22031,0.26169 -0.456,0.34623 -0.6875,0.21875 -1.27473,-0.70199 -2.3284098,-1.28442 -3.5624998,-1.96875 l -2.34375,2.875 c 0.89812,0.49368 1.7916,0.97105 2.6875,1.46875 0.34263,0.19034 0.46875,0.4677 0.46875,0.90625 l 0,1.65625 4.7187498,2.59375 c 0.86382,0.47419 1.46875,2.21875 1.46875,2.21875 l 3.53125,1.9375 c 0.34333,0.18906 0.46875,0.49895 0.46875,0.9375 l 0,0.8125 c -0.0132,0.3835 -0.0656,0.69202 -0.34375,0.84375 l -1.46875,0.8125 c -0.19957,0.10891 -0.46209,0.0756 -0.65625,-0.0312 l -8.4687498,-4.6563 c -0.3433,-0.18907 -0.46875,-0.49895 -0.46875,-0.9375 l 0,-0.28125 2.0312498,-2.40625 -5.9687498,-3.28125 c -0.34331,-0.18906 -0.46875,-0.46273 -0.46875,-0.90625 l 0,-11.125 0,-1.28125 0,-1.875 0,-0.625 c 0,-0.43855 0.12544,-0.74843 0.46875,-0.9375 l 0.4375,-0.21875 c 3.48921,-1.91597 10.3437498,-5.6875 10.3437498,-5.6875 0.0831,-0.0457 0.17024,-0.0872 0.25,-0.0937 z m 18.75,3.21875 c 0.13538,0 0.29609,0.0633 0.53125,0.1875 1.57804,0.87208 3.17006,1.72514 4.75,2.59375 0.34332,0.18907 0.46875,0.49895 0.46875,0.9375 l 0,10.8125 -0.8125,-0.9375 c -0.2505,-0.29666 -0.50118,-0.30907 -0.78125,-0.15625 l -0.96875,0.53125 2.21875,2.625 c 0.21482,0.25506 0.34375,0.39113 0.34375,0.84375 l 0,5.65625 c 0,0.43855 -0.12538,0.71728 -0.46875,0.90625 l -6.0625,3.34375 c -0.25885,0.14247 -0.52001,0.11573 -0.75,-0.15625 -0.81823,-0.96762 -1.77287,-2.04855 -2.6875,-3.15625 -0.67515,0.37338 -1.35454,0.78189 -2.03125,1.125 -0.34526,0.17506 -0.56773,0.18655 -0.90625,0 -0.59763,-0.32933 -1.24469,-0.67807 -1.90625,-1.0625 -0.33887,-0.19691 -0.46875,-0.4677 -0.46875,-0.90625 -0.002,-1.07567 -0.0333,-2.15381 -0.0312,-3.25 6.2e-4,-0.36632 0.15218,-0.74772 0.46875,-1.125 l 3.59375,-4.28125 -1.34375,0 c -0.45,0 -0.90625,-0.45625 -0.90625,-0.90625 l 0,-1.25 c 0,-0.43855 0.12581,-0.7165 0.46875,-0.90625 0.22031,-0.1219 1.125,-0.625 1.125,-0.625 l -0.0312,-2.5 c -8.1e-4,-0.31457 0.10423,-0.70535 0.46875,-0.90625 l 3.375,-1.84375 0,-3.75 c 0,-0.43855 0.12606,-0.71605 0.46875,-0.90625 0.41949,-0.23258 0.93226,-0.52127 1.40625,-0.78125 0.20425,-0.10809 0.32806,-0.15625 0.46875,-0.15625 z m -5.5,14.53125 2.5,1.375 5.375,-2.96875 0,-2.75 -2,1.09375 c -0.27958,0.15471 -0.56256,0.16623 -0.8125,-0.125 l -0.6875,-0.84375 c -0.22031,-0.2617 -0.47384,-0.31807 -0.71875,-0.21875 l -2.625,1.4375 z"
       style="font-size:medium;font-style:normal;font-variant:normal;font-weight:normal;font-stretch:normal;text-indent:0;text-align:start;text-decoration:none;line-height:normal;letter-spacing:normal;word-spacing:normal;text-transform:none;direction:ltr;block-progression:tb;writing-mode:lr-tb;text-anchor:start;baseline-shift:baseline;color:#000000;fill:#ffffff;fill-opacity:1;fill-rule:nonzero;stroke:none;stroke-width:40;marker:none;visibility:visible;display:inline;overflow:visible;enable-background:accumulate;font-family:Sans;-inkscape-font-specification:Sans" />
    <g
       id="g4334"
       transform="matrix(0.70710678,0.70710678,-0.70710678,0.70710678,-152.93308,-760.60771)"
       style="opacity:0.5;color:#000000;fill:#000000;fill-opacity:1;fill-rule:nonzero;stroke:none;stroke-width:1;marker:none;visibility:visible;display:inline;overflow:visible;enable-background:accumulate" />
    <path
       style="font-size:medium;font-style:normal;font-variant:normal;font-weight:normal;font-stretch:normal;text-indent:0;text-align:start;text-decoration:none;line-height:normal;letter-spacing:normal;word-spacing:normal;text-transform:none;direction:ltr;block-progression:tb;writing-mode:lr-tb;text-anchor:start;baseline-shift:baseline;color:#000000;fill:#ffffff;fill-opacity:1;fill-rule:nonzero;stroke:#000000;stroke-width:3;stroke-miterlimit:4;stroke-opacity:0.09803922;stroke-dasharray:none;marker:none;visibility:visible;display:inline;overflow:visible;enable-background:accumulate;font-family:Sans;-inkscape-font-specification:Sans"
       d="m 24.792893,187.86218 c -0.3786,0 -0.76128,0.1001 -1.09375,0.2812 l -20.25,11.1563 c -0.35077,0.1926 -0.63981,0.4685 -0.84375,0.8125 -0.20394,0.344 -0.31184,0.7561 -0.3125,1.1562 l 0,22.6875 c 0.001,0.8004 0.45471,1.5836 1.15625,1.9688 l 20.25,11.1562 c 0.3301,0.1812 0.7174,0.2813 1.09375,0.2813 0.37637,0 0.76366,-0.1001 1.09375,-0.2813 l 20.25,-11.1562 c 0.70154,-0.3852 1.15494,-1.1684 1.15625,-1.9688 l 0,-22.6875 c -6.1e-4,-0.4001 -0.10856,-0.8122 -0.3125,-1.1562 -0.20393,-0.344 -0.49298,-0.6199 -0.84375,-0.8125 l -20.25,-11.1563 c -0.32835,-0.1789 -0.71982,-0.2811 -1.09375,-0.2812 z m 0,4.5625 c 0.0953,0.001 0.18722,0.025 0.3125,0.094 1.23824,0.682 2.48268,1.3766 3.71875,2.0625 0.34271,0.1902 0.46875,0.4677 0.46875,0.9062 l 0,2.0313 c 0,0.433 -0.13596,0.7169 -0.46875,0.9062 l -1.09375,0.6563 0,0.4687 c 0,0.675 -0.24119,0.9063 -0.90625,0.9063 l -0.28125,0 -1.875,-2.2188 c -0.19522,-0.2308 -0.3125,-0.3825 -0.3125,-0.8125 l 0,-4.4062 c 0,-0.328 0.15177,-0.5969 0.4375,-0.5938 z m -2.375,1.3125 c 0.21689,0.016 0.34375,0.2349 0.34375,0.5937 l 0,1.25 c 0,0.3395 -0.0625,0.4929 -0.1875,0.6563 l -1.46875,1.75 -0.25,0.2812 c -0.24881,0.2969 -0.5625,0.2025 -0.5625,-0.2187 l 0,-2.5625 c 0,-0.4288 0.10603,-0.7405 0.4375,-0.9063 l 1.4375,-0.7812 c 0.0888,-0.049 0.17771,-0.068 0.25,-0.062 z m -4.125,2.25 c 0.23928,-0.02 0.4375,0.1529 0.4375,0.5312 l 0,4.2813 2,1.125 c 0.34331,0.189 0.46875,0.4677 0.46875,0.9062 l 0,0.8125 -1.4375,0.8125 -1.53125,-1.8437 -2.84375,1.5625 c -0.55774,0.3071 -0.70172,0.625 -0.125,0.9375 l 2.3125,1.25 c 0.34332,0.1891 0.46875,0.4989 0.46875,0.9375 l 0,0.4687 1.125,0.625 0,-1.625 c 0,-0.45 -0.0176,-0.7313 0.46875,-1 l 2.28125,-1.2812 2.125,2.5312 -2.75,1.5313 c -1.81215,2.1625 -3.61157,4.318 -5.4375,6.4687 -0.22031,0.2617 -0.456,0.3463 -0.6875,0.2188 -1.27473,-0.702 -2.32841,-1.2844 -3.5625,-1.9688 l -2.34375,2.875 c 0.89812,0.4937 1.7916,0.9711 2.6875,1.4688 0.34263,0.1903 0.46875,0.4677 0.46875,0.9062 l 0,1.6563 4.71875,2.5937 c 0.86382,0.4742 1.46875,2.2188 1.46875,2.2188 l 3.53125,1.9375 c 0.34333,0.189 0.46875,0.4989 0.46875,0.9375 l 0,0.8125 c -0.0132,0.3835 -0.0656,0.692 -0.34375,0.8437 l -1.46875,0.8125 c -0.19957,0.1089 -0.46209,0.076 -0.65625,-0.031 l -8.46875,-4.6565 c -0.3433,-0.189 -0.46875,-0.4989 -0.46875,-0.9375 l 0,-0.2812 2.03125,-2.4063 -5.96875,-3.2812 c -0.34331,-0.1891 -0.46875,-0.4627 -0.46875,-0.9063 l 0,-11.125 0,-1.2812 0,-1.875 0,-0.625 c 0,-0.4386 0.12544,-0.7484 0.46875,-0.9375 l 0.4375,-0.2188 c 3.48921,-1.9159 10.34375,-5.6875 10.34375,-5.6875 0.0831,-0.046 0.17024,-0.087 0.25,-0.094 z m 18.75,3.2187 c 0.13538,0 0.29609,0.063 0.53125,0.1875 1.57804,0.8721 3.17006,1.7252 4.75,2.5938 0.34332,0.1891 0.46875,0.4989 0.46875,0.9375 l 0,10.8125 -0.8125,-0.9375 c -0.2505,-0.2967 -0.50118,-0.3091 -0.78125,-0.1563 l -0.96875,0.5313 2.21875,2.625 c 0.21482,0.255 0.34375,0.3911 0.34375,0.8437 l 0,5.6563 c 0,0.4385 -0.12538,0.7173 -0.46875,0.9062 l -6.0625,3.3438 c -0.25885,0.1425 -0.52001,0.1157 -0.75,-0.1563 -0.81823,-0.9676 -1.77287,-2.0485 -2.6875,-3.1562 -0.67515,0.3734 -1.35454,0.7819 -2.03125,1.125 -0.34526,0.175 -0.56773,0.1865 -0.90625,0 -0.59763,-0.3293 -1.24469,-0.6781 -1.90625,-1.0625 -0.33887,-0.1969 -0.46875,-0.4677 -0.46875,-0.9063 -0.002,-1.0756 -0.0333,-2.1538 -0.0312,-3.25 6.2e-4,-0.3663 0.15218,-0.7477 0.46875,-1.125 l 3.59375,-4.2812 -1.34375,0 c -0.45,0 -0.90625,-0.4563 -0.90625,-0.9063 l 0,-1.25 c 0,-0.4385 0.12581,-0.7165 0.46875,-0.9062 0.22031,-0.1219 1.125,-0.625 1.125,-0.625 l -0.0312,-2.5 c -8.1e-4,-0.3146 0.10423,-0.7054 0.46875,-0.9063 l 3.375,-1.8437 0,-3.75 c 0,-0.4386 0.12606,-0.7161 0.46875,-0.9063 0.41949,-0.2325 0.93226,-0.5212 1.40625,-0.7812 0.20425,-0.1081 0.32806,-0.1563 0.46875,-0.1563 z m -5.5,14.5313 2.5,1.375 5.375,-2.9688 0,-2.75 -2,1.0938 c -0.27958,0.1547 -0.56256,0.1662 -0.8125,-0.125 l -0.6875,-0.8438 c -0.22031,-0.2617 -0.47384,-0.318 -0.71875,-0.2187 l -2.625,1.4375 z"
       id="path3840"
       inkscape:connector-curvature="0"
       sodipodi:nodetypes="ccccccccsccccccccccsssccssccsscccsscccssccccsccsccccccsccsccccccccssccccscccccscccscccscccccsccscccccssccscsccccccssscccccsccscccccccccc"
       inkscape:export-filename="/Users/saman/Dropbox/mapbox-redesign/sketch.png"
       inkscape:export-xdpi="90"
       inkscape:export-ydpi="90" />
    <path
       inkscape:export-ydpi="90"
       inkscape:export-xdpi="90"
       inkscape:export-filename="/Users/saman/Dropbox/mapbox-redesign/sketch.png"
       sodipodi:nodetypes="ccccccccsccccccccccsssccssccsscccsscccssccccsccsccccccsccsccccccccssccccscccccscccscccscccccsccscccccssccscsccccccssscccccsccscccccccccc"
       inkscape:connector-curvature="0"
       id="path3012"
       d="m 24.792893,187.86218 c -0.3786,0 -0.76128,0.1001 -1.09375,0.2812 l -20.25,11.1563 c -0.35077,0.1926 -0.63981,0.4685 -0.84375,0.8125 -0.20394,0.344 -0.31184,0.7561 -0.3125,1.1562 l 0,22.6875 c 0.001,0.8004 0.45471,1.5836 1.15625,1.9688 l 20.25,11.1562 c 0.3301,0.1812 0.7174,0.2813 1.09375,0.2813 0.37637,0 0.76366,-0.1001 1.09375,-0.2813 l 20.25,-11.1562 c 0.70154,-0.3852 1.15494,-1.1684 1.15625,-1.9688 l 0,-22.6875 c -6.1e-4,-0.4001 -0.10856,-0.8122 -0.3125,-1.1562 -0.20393,-0.344 -0.49298,-0.6199 -0.84375,-0.8125 l -20.25,-11.1563 c -0.32835,-0.1789 -0.71982,-0.2811 -1.09375,-0.2812 z m 0,4.5625 c 0.0953,0.001 0.18722,0.025 0.3125,0.094 1.23824,0.682 2.48268,1.3766 3.71875,2.0625 0.34271,0.1902 0.46875,0.4677 0.46875,0.9062 l 0,2.0313 c 0,0.433 -0.13596,0.7169 -0.46875,0.9062 l -1.09375,0.6563 0,0.4687 c 0,0.675 -0.24119,0.9063 -0.90625,0.9063 l -0.28125,0 -1.875,-2.2188 c -0.19522,-0.2308 -0.3125,-0.3825 -0.3125,-0.8125 l 0,-4.4062 c 0,-0.328 0.15177,-0.5969 0.4375,-0.5938 z m -2.375,1.3125 c 0.21689,0.016 0.34375,0.2349 0.34375,0.5937 l 0,1.25 c 0,0.3395 -0.0625,0.4929 -0.1875,0.6563 l -1.46875,1.75 -0.25,0.2812 c -0.24881,0.2969 -0.5625,0.2025 -0.5625,-0.2187 l 0,-2.5625 c 0,-0.4288 0.10603,-0.7405 0.4375,-0.9063 l 1.4375,-0.7812 c 0.0888,-0.049 0.17771,-0.068 0.25,-0.062 z m -4.125,2.25 c 0.23928,-0.02 0.4375,0.1529 0.4375,0.5312 l 0,4.2813 2,1.125 c 0.34331,0.189 0.46875,0.4677 0.46875,0.9062 l 0,0.8125 -1.4375,0.8125 -1.53125,-1.8437 -2.84375,1.5625 c -0.55774,0.3071 -0.70172,0.625 -0.125,0.9375 l 2.3125,1.25 c 0.34332,0.1891 0.46875,0.4989 0.46875,0.9375 l 0,0.4687 1.125,0.625 0,-1.625 c 0,-0.45 -0.0176,-0.7313 0.46875,-1 l 2.28125,-1.2812 2.125,2.5312 -2.75,1.5313 c -1.81215,2.1625 -3.61157,4.318 -5.4375,6.4687 -0.22031,0.2617 -0.456,0.3463 -0.6875,0.2188 -1.27473,-0.702 -2.32841,-1.2844 -3.5625,-1.9688 l -2.34375,2.875 c 0.89812,0.4937 1.7916,0.9711 2.6875,1.4688 0.34263,0.1903 0.46875,0.4677 0.46875,0.9062 l 0,1.6563 4.71875,2.5937 c 0.86382,0.4742 1.46875,2.2188 1.46875,2.2188 l 3.53125,1.9375 c 0.34333,0.189 0.46875,0.4989 0.46875,0.9375 l 0,0.8125 c -0.0132,0.3835 -0.0656,0.692 -0.34375,0.8437 l -1.46875,0.8125 c -0.19957,0.1089 -0.46209,0.076 -0.65625,-0.031 l -8.46875,-4.6565 c -0.3433,-0.189 -0.46875,-0.4989 -0.46875,-0.9375 l 0,-0.2812 2.03125,-2.4063 -5.96875,-3.2812 c -0.34331,-0.1891 -0.46875,-0.4627 -0.46875,-0.9063 l 0,-11.125 0,-1.2812 0,-1.875 0,-0.625 c 0,-0.4386 0.12544,-0.7484 0.46875,-0.9375 l 0.4375,-0.2188 c 3.48921,-1.9159 10.34375,-5.6875 10.34375,-5.6875 0.0831,-0.046 0.17024,-0.087 0.25,-0.094 z m 18.75,3.2187 c 0.13538,0 0.29609,0.063 0.53125,0.1875 1.57804,0.8721 3.17006,1.7252 4.75,2.5938 0.34332,0.1891 0.46875,0.4989 0.46875,0.9375 l 0,10.8125 -0.8125,-0.9375 c -0.2505,-0.2967 -0.50118,-0.3091 -0.78125,-0.1563 l -0.96875,0.5313 2.21875,2.625 c 0.21482,0.255 0.34375,0.3911 0.34375,0.8437 l 0,5.6563 c 0,0.4385 -0.12538,0.7173 -0.46875,0.9062 l -6.0625,3.3438 c -0.25885,0.1425 -0.52001,0.1157 -0.75,-0.1563 -0.81823,-0.9676 -1.77287,-2.0485 -2.6875,-3.1562 -0.67515,0.3734 -1.35454,0.7819 -2.03125,1.125 -0.34526,0.175 -0.56773,0.1865 -0.90625,0 -0.59763,-0.3293 -1.24469,-0.6781 -1.90625,-1.0625 -0.33887,-0.1969 -0.46875,-0.4677 -0.46875,-0.9063 -0.002,-1.0756 -0.0333,-2.1538 -0.0312,-3.25 6.2e-4,-0.3663 0.15218,-0.7477 0.46875,-1.125 l 3.59375,-4.2812 -1.34375,0 c -0.45,0 -0.90625,-0.4563 -0.90625,-0.9063 l 0,-1.25 c 0,-0.4385 0.12581,-0.7165 0.46875,-0.9062 0.22031,-0.1219 1.125,-0.625 1.125,-0.625 l -0.0312,-2.5 c -8.1e-4,-0.3146 0.10423,-0.7054 0.46875,-0.9063 l 3.375,-1.8437 0,-3.75 c 0,-0.4386 0.12606,-0.7161 0.46875,-0.9063 0.41949,-0.2325 0.93226,-0.5212 1.40625,-0.7812 0.20425,-0.1081 0.32806,-0.1563 0.46875,-0.1563 z m -5.5,14.5313 2.5,1.375 5.375,-2.9688 0,-2.75 -2,1.0938 c -0.27958,0.1547 -0.56256,0.1662 -0.8125,-0.125 l -0.6875,-0.8438 c -0.22031,-0.2617 -0.47384,-0.318 -0.71875,-0.2187 l -2.625,1.4375 z"
       style="font-size:medium;font-style:normal;font-variant:normal;font-weight:normal;font-stretch:normal;text-indent:0;text-align:start;text-decoration:none;line-height:normal;letter-spacing:normal;word-spacing:normal;text-transform:none;direction:ltr;block-progression:tb;writing-mode:lr-tb;text-anchor:start;baseline-shift:baseline;color:#000000;fill:#ffffff;fill-opacity:1;fill-rule:nonzero;stroke:none;stroke-width:40;marker:none;visibility:visible;display:inline;overflow:visible;enable-background:accumulate;font-family:Sans;-inkscape-font-specification:Sans" />
    <path
       style="fill:#3bb2d0;fill-opacity:1;fill-rule:nonzero;stroke:none"
       d="m 107.29289,50.36218 0,21 5.6875,0 c 4.2,-10e-7 7.5,-3.312501 7.5,-7.8125 0,-4.500001 -3.3,-7.781251 -7.5,-7.78125 -0.94977,0.0039 -1.71145,-0.03525 -2.6875,-0.03125 l 0,-5.375 -3,0 z m -52.999997,1 0,20 3,0 0,-16.40625 6,10.21875 6,-10.21875 0,16.40625 3,0 0,-20 -2.40625,0 c -1.2,-0.004 -2.12683,0.2875 -2.65625,1.1875 l -3.9375,6.6875 -3.9375,-6.6875 c -0.52941,-0.9 -1.45625,-1.19134 -2.65625,-1.1875 l -2.40625,0 z m 27.8125,4.40625 c -4.2,0 -7.21875,3.28125 -7.21875,7.78125 10e-7,4.5 2.71875,7.8125 7.21875,7.8125 l 7.1875,0 0,-8.09375 c 0,-4.2 -2.9875,-7.5 -7.1875,-7.5 z m 10.1875,0 0,20.6875 2.999997,0 0,-5.0625 c 0.97604,0.004 1.73772,-0.0352 2.6875,-0.03125 4.2,0 7.5,-3.3125 7.5,-7.8125 0,-4.5 -3.3,-7.78125 -7.5,-7.78125 l -5.687497,0 z m 37.499997,0 c -4.14214,0 -7.5,3.50469 -7.5,7.8125 0,4.30781 3.35786,7.78125 7.5,7.78125 4.14214,0 7.5,-3.47344 7.5,-7.78125 0,-4.30781 -3.35786,-7.8125 -7.5,-7.8125 z m 7.5,0.59375 5.21875,7.28125 -5.5,7.71875 3.6875,0 3.65625,-5.15625 3.6875,5.15625 3.65625,0 -5.5,-7.71875 5.21875,-7.28125 -3.6875,0 -3.375,4.71875 -3.375,-4.71875 -3.6875,0 z m -55.187497,2.40625 c 2.4,0 4.1875,1.767828 4.1875,4.5 l 0,5.09375 -4.1875,0 c -2.699997,0 -4.218753,-2.116334 -4.21875,-4.8125 3e-6,-2.403834 1.81875,-4.78125 4.21875,-4.78125 z m 13.187497,0 2.6875,0 c 2.73217,0 4.5,2.258073 4.5,4.78125 0,2.523374 -1.97446,4.8125 -4.5,4.8125 l -2.6875,0 0,-9.59375 z m 15,0 2.6875,0 c 2.52555,0 4.5,2.257876 4.5,4.78125 0,2.523177 -1.76782,4.8125 -4.5,4.8125 l -2.6875,0 0,-9.59375 z m 19.5,0 c 2.48529,0 4.5,2.16154 4.5,4.8125 0,2.65096 -2.01471,4.78125 -4.5,4.78125 -2.48529,0 -4.5,-2.13029 -4.5,-4.78125 0,-2.65096 2.01471,-4.8125 4.5,-4.8125 z"
       id="path5364"
       inkscape:connector-curvature="0" />
    <path
       id="path3642"
       d="m 107.29289,120.36218 0,21 5.6875,0 c 4.2,0 7.5,-3.3125 7.5,-7.8125 0,-4.5 -3.3,-7.78125 -7.5,-7.78125 -0.94977,0.004 -1.71145,-0.0352 -2.6875,-0.0312 l 0,-5.375 -3,0 z m -52.999997,1 0,20 3,0 0,-16.40625 6,10.21875 6,-10.21875 0,16.40625 3,0 0,-20 -2.40625,0 c -1.2,-0.004 -2.12683,0.2875 -2.65625,1.1875 l -3.9375,6.6875 -3.9375,-6.6875 c -0.52941,-0.9 -1.45625,-1.19134 -2.65625,-1.1875 l -2.40625,0 z m 27.8125,4.40625 c -4.2,0 -7.21875,3.28125 -7.21875,7.78125 10e-7,4.5 2.71875,7.8125 7.21875,7.8125 l 7.1875,0 0,-8.09375 c 0,-4.2 -2.9875,-7.5 -7.1875,-7.5 z m 10.1875,0 0,20.6875 2.999997,0 0,-5.0625 c 0.97604,0.004 1.73772,-0.0352 2.6875,-0.0312 4.2,0 7.5,-3.3125 7.5,-7.8125 0,-4.5 -3.3,-7.78125 -7.5,-7.78125 l -5.687497,0 z m 37.499997,0 c -4.14214,0 -7.5,3.50469 -7.5,7.8125 0,4.30781 3.35786,7.78125 7.5,7.78125 4.14214,0 7.5,-3.47344 7.5,-7.78125 0,-4.30781 -3.35786,-7.8125 -7.5,-7.8125 z m 7.5,0.59375 5.21875,7.28125 -5.5,7.71875 3.6875,0 3.65625,-5.15625 3.6875,5.15625 3.65625,0 -5.5,-7.71875 5.21875,-7.28125 -3.6875,0 -3.375,4.71875 -3.375,-4.71875 -3.6875,0 z m -55.187497,2.40625 c 2.4,0 4.1875,1.76783 4.1875,4.5 l 0,5.09375 -4.1875,0 c -2.699997,0 -4.218753,-2.11633 -4.21875,-4.8125 3e-6,-2.40383 1.81875,-4.78125 4.21875,-4.78125 z m 13.187497,0 2.6875,0 c 2.73217,0 4.5,2.25807 4.5,4.78125 0,2.52337 -1.97446,4.8125 -4.5,4.8125 l -2.6875,0 0,-9.59375 z m 15,0 2.6875,0 c 2.52555,0 4.5,2.25788 4.5,4.78125 0,2.52318 -1.76782,4.8125 -4.5,4.8125 l -2.6875,0 0,-9.59375 z m 19.5,0 c 2.48529,0 4.5,2.16154 4.5,4.8125 0,2.65096 -2.01471,4.78125 -4.5,4.78125 -2.48529,0 -4.5,-2.13029 -4.5,-4.78125 0,-2.65096 2.01471,-4.8125 4.5,-4.8125 z"
       style="fill:#ffffff;fill-opacity:1;fill-rule:nonzero;stroke:none"
       inkscape:connector-curvature="0" />
    <g
       id="g3685"
       transform="translate(-52.727289,290)">
      <path
         sodipodi:nodetypes="cccccccccscccccccssscccccccccsscccsscsccssscccccccccccccccssscccscssccssscccsssc"
         id="path4544"
         d="m 87.020182,-14.63782 0,13.99999996 2,0 0,-11.62499996 4,6.8125 4,-6.8125 0,11.62499996 1.999998,0 0,-13.99999996 -1.593748,0 c -0.8,0 -1.42831,0.1812 -1.78125,0.7812 l -2.625,4.4688 -2.625,-4.4688 c -0.35293,-0.6 -0.98125,-0.7836 -1.78125,-0.7812 z m 34.999998,0 0,13.99999996 3.8125,0 c 2.8,0 5,-2.21879996 5,-5.21879996 0,-3 -2.2,-5.1874 -5,-5.1874 -0.63318,0 -1.1618,-0.033 -1.8125,-0.031 l 0,-3.5625 -2,0 z m -10,3.5625 0,14.4374998 2,0 0,-3.99999984 c 0.6507,0 1.17932,-0.033 1.8125,-0.031 2.8,0 5,-2.18759996 5,-5.18759996 0,-3 -2.2,-5.2187 -5,-5.2187 l -3.8125,0 z m -6.78125,0.031 c -2.8,0 -4.8125,2.1875 -4.8125,5.1874 0,3 2.0125,5.21879996 4.8125,5.21879996 l 4.78125,0 0,-5.21879996 c 0,-3 -1.98125,-5.1875 -4.78125,-5.1874 z m 31.78125,0 c -2.76142,0 -5,2.3156 -5,5.1874 0,2.8719 2.23858,5.21879996 5,5.21879996 2.76142,0 5,-2.34679996 5,-5.21879996 0,-2.8718 -2.23858,-5.1875 -5,-5.1874 z m 5.1875,0.4062 3.46875,4.8438 -3.65625,5.15619996 2.4375,0 2.46875,-3.43749996 2.4375,3.43749996 2.46875,0 -3.6875,-5.15619996 3.46875,-4.8438 -2.46875,0 -2.21875,3.125 -2.25,-3.125 z m -28.1875,1.5625 1.8125,0 c 1.82144,0 3,1.5366 3,3.2187 0,1.6822 -1.3163,3.1876 -3,3.1876 l -1.8125,0 z m -8.78125,0.031 c 1.6,0 2.78125,1.366 2.78125,3.1874 l 0,3.2188 -2.78125,0 c -1.6,0 -2.8125,-1.4213 -2.8125,-3.2188 0,-1.7999 1.2125,-3.1875 2.8125,-3.1874 z m 18.78125,0 1.8125,0 c 1.6837,0 3,1.5052 3,3.1874 0,1.6821 -1.17854,3.2188 -3,3.2188 l -1.8125,0 z m 13,0 c 1.65686,0 3,1.4202 3,3.1874 0,1.7673 -1.34314,3.2188 -3,3.2188 -1.65686,0 -3,-1.4514 -3,-3.2188 0,-1.7672 1.34314,-3.1875 3,-3.1874 z"
         style="color:#000000;fill:#3bb2d0;fill-opacity:1;stroke:none;stroke-width:2;marker:none;visibility:visible;display:inline;overflow:visible;enable-background:accumulate"
         inkscape:connector-curvature="0" />
      <path
         inkscape:export-ydpi="90"
         inkscape:export-xdpi="90"
         inkscape:export-filename="/Users/saman/Dropbox/mapbox-redesign/sketch.png"
         sodipodi:nodetypes="ccccccccsccccccccccsssccssccsscccsscccssccccsccsccccccsccsccccccccssccccscccccscccscccscccccsccscccccssccscsccccccssscccccsccscccccccccc"
         inkscape:connector-curvature="0"
         id="path5629-7-4-6-2-4"
         d="m 65.656538,-22.637803 c -0.229454,-0.0012 -0.461382,0.06066 -0.662878,0.170455 l -12.27272,6.76136 c -0.212588,0.116734 -0.387765,0.283939 -0.511365,0.492424 -0.1236,0.20848 -0.188992,0.458231 -0.189393,0.700757 l 0,13.74999199 c 6.06e-4,0.48505462 0.275583,0.95972106 0.700758,1.1931818 L 64.99366,7.1917262 c 0.20006,0.1098178 0.434787,0.1704543 0.662878,0.1704543 0.228103,0 0.462823,-0.060637 0.662878,-0.1704543 L 78.592137,0.43036679 c 0.425175,-0.23346074 0.699964,-0.70812718 0.700756,-1.1931818 l 0,-13.74999199 c -3.68e-4,-0.242526 -0.06579,-0.492277 -0.189392,-0.700757 -0.123596,-0.208485 -0.298777,-0.37569 -0.511364,-0.492424 l -12.272721,-6.76136 c -0.199001,-0.108417 -0.436255,-0.170381 -0.662878,-0.170455 z m 0,2.765151 c 0.05775,6.06e-4 0.113467,0.01504 0.189393,0.05678 0.750449,0.413333 1.504654,0.83429 2.253789,1.25 0.207701,0.115254 0.28409,0.283454 0.28409,0.549241 l 0,1.23106 c 0,0.262455 -0.08238,0.434516 -0.28409,0.549243 l -0.662879,0.397726 0,0.28409 c 0,0.409092 -0.146177,0.549245 -0.549243,0.549245 l -0.170456,0 -1.136362,-1.344698 c -0.118316,-0.139902 -0.189394,-0.231824 -0.189394,-0.492423 l 0,-2.670454 c 0,-0.198769 0.09198,-0.361757 0.265152,-0.359848 z m -1.439392,0.795455 c 0.131447,0.0099 0.208332,0.142399 0.208332,0.359848 l 0,0.757575 c 0,0.205734 -0.03788,0.298715 -0.113637,0.397727 l -0.89015,1.060604 -0.151517,0.170456 c -0.150791,0.179934 -0.340908,0.122716 -0.340908,-0.132575 l 0,-1.55303 c 0,-0.259873 0.06426,-0.448801 0.265152,-0.549241 l 0.871212,-0.473486 c 0.05382,-0.02944 0.107703,-0.04115 0.151516,-0.03788 z m -2.5,1.363636 c 0.145018,-0.01199 0.265153,0.09264 0.265153,0.321969 l 0,2.594694 1.212119,0.681819 c 0.208066,0.114581 0.284092,0.283453 0.284092,0.549242 l 0,0.492424 -0.871212,0.492424 -0.928029,-1.117423 -1.723486,0.946968 c -0.338024,0.18615 -0.425285,0.378824 -0.07576,0.568182 l 1.401516,0.757576 c 0.208072,0.114586 0.28409,0.302393 0.28409,0.56818 l 0,0.284091 0.681817,0.378787 0,-0.984848 c 0,-0.272727 -0.01067,-0.443211 0.284092,-0.60606 l 1.382573,-0.776513 1.28788,1.534089 -1.666665,0.92803 c -1.098273,1.3105929 -2.18883,2.6169613 -3.295454,3.9204516 -0.133521,0.1586004 -0.276362,0.2098365 -0.416665,0.1325763 -0.772566,-0.4254491 -1.411157,-0.7784363 -2.15909,-1.193181 l -1.420456,1.7424222 c 0.544316,0.2991999 1.085819,0.5885152 1.628787,0.8901513 0.207655,0.1153578 0.284092,0.2834548 0.284092,0.5492424 l 0,1.0037874 2.859848,1.5719689 c 0.523528,0.2873872 0.89015,1.34469634 0.89015,1.34469634 l 2.14015,1.17424116 c 0.208079,0.1145818 0.284092,0.3023938 0.284092,0.5681814 l 0,0.4924241 c -0.008,0.2324241 -0.03976,0.4194057 -0.208334,0.5113632 l -0.890152,0.4924242 c -0.120952,0.066006 -0.280055,0.045818 -0.397727,-0.01891 L 57.701993,0.25991196 C 57.493931,0.14532381 57.417902,-0.04248192 57.417902,-0.30827027 l 0,-0.17045464 1.231059,-1.45833159 -3.617422,-1.9886359 c -0.208067,-0.1145812 -0.28409,-0.2804418 -0.28409,-0.5492413 l 0,-6.7424213 0,-0.776514 0,-1.136364 0,-0.378787 c 0,-0.265789 0.07603,-0.453594 0.28409,-0.568181 l 0.26515,-0.132577 c 2.114673,-1.161192 6.268937,-3.446967 6.268937,-3.446967 0.05037,-0.02769 0.103176,-0.05285 0.151516,-0.05678 z m 11.363629,1.950754 c 0.08205,0 0.179449,0.03837 0.321971,0.113637 0.956387,0.528534 1.921248,1.045539 2.878786,1.57197 0.208073,0.114587 0.28409,0.302393 0.28409,0.568181 l 0,6.5530266 -0.492424,-0.5681824 c -0.151818,-0.1797935 -0.303745,-0.1873146 -0.473484,-0.0947 l -0.58712,0.3219698 1.344696,1.5909079 c 0.130194,0.1545815 0.208332,0.2370477 0.208332,0.5113632 l 0,3.4280285 c 0,0.2657875 -0.07599,0.4347143 -0.28409,0.5492414 l -3.674241,2.02651404 c -0.156878,0.086345 -0.315156,0.07014 -0.454546,-0.094697 C 71.65685,0.12801673 71.07828,-0.52709181 70.52396,-1.1984247 c -0.409182,0.22629027 -0.820934,0.47387203 -1.23106,0.68181769 -0.209249,0.1060965 -0.344081,0.11306058 -0.549242,0 -0.362201,-0.19959378 -0.754357,-0.4109511 -1.155305,-0.64393949 -0.205375,-0.1193394 -0.28409,-0.2834539 -0.28409,-0.5492415 -0.0012,-0.6519213 -0.02018,-1.3053387 -0.01891,-1.9696959 3.77e-4,-0.2220124 0.09223,-0.4531641 0.284092,-0.6818176 l 2.178029,-2.5946955 -0.814394,0 c -0.272727,0 -0.549243,-0.2765153 -0.549243,-0.5492423 l 0,-0.7575759 c 0,-0.2657874 0.07625,-0.4342417 0.284092,-0.5492414 0.13352,-0.073882 0.681819,-0.3787878 0.681819,-0.3787878 l -0.01891,-1.5151496 c -4.91e-4,-0.19065 0.06319,-0.427484 0.284091,-0.549243 l 2.045453,-1.117424 0,-2.272726 c 0,-0.265786 0.07639,-0.433968 0.28409,-0.549241 0.254239,-0.140957 0.565007,-0.315921 0.852273,-0.473484 0.123788,-0.0655 0.198824,-0.0947 0.284092,-0.0947 z m -3.33333,8.8068146 1.51515,0.8333321 3.257574,-1.7992414 0,-1.6666652 -1.21212,0.6628787 c -0.169444,0.093765 -0.340946,0.1007447 -0.492425,-0.075764 L 72.39896,-9.5128148 c -0.133523,-0.1586051 -0.287177,-0.1927695 -0.435608,-0.132575 l -1.590908,0.871211 z"
         style="font-size:medium;font-style:normal;font-variant:normal;font-weight:normal;font-stretch:normal;text-indent:0;text-align:start;text-decoration:none;line-height:normal;letter-spacing:normal;word-spacing:normal;text-transform:none;direction:ltr;block-progression:tb;writing-mode:lr-tb;text-anchor:start;baseline-shift:baseline;color:#000000;fill:#3bb2d0;fill-opacity:1;fill-rule:nonzero;stroke:none;stroke-width:40;marker:none;visibility:visible;display:inline;overflow:visible;enable-background:accumulate;font-family:Sans;-inkscape-font-specification:Sans" />
    </g>
    <g
       transform="translate(-52.727289,350)"
       id="g3735"
       style="fill:#ffffff">
      <path
         inkscape:connector-curvature="0"
         style="color:#000000;fill:#ffffff;fill-opacity:1;stroke:none;stroke-width:2;marker:none;visibility:visible;display:inline;overflow:visible;enable-background:accumulate"
         d="m 87.020182,-14.63782 0,13.99999996 2,0 0,-11.62499996 4,6.8125 4,-6.8125 0,11.62499996 1.999998,0 0,-13.99999996 -1.593748,0 c -0.8,0 -1.42831,0.1812 -1.78125,0.7812 l -2.625,4.4688 -2.625,-4.4688 c -0.35293,-0.6 -0.98125,-0.7836 -1.78125,-0.7812 z m 34.999998,0 0,13.99999996 3.8125,0 c 2.8,0 5,-2.21879996 5,-5.21879996 0,-3 -2.2,-5.1874 -5,-5.1874 -0.63318,0 -1.1618,-0.033 -1.8125,-0.031 l 0,-3.5625 -2,0 z m -10,3.5625 0,14.4374998 2,0 0,-3.99999984 c 0.6507,0 1.17932,-0.033 1.8125,-0.031 2.8,0 5,-2.18759996 5,-5.18759996 0,-3 -2.2,-5.2187 -5,-5.2187 l -3.8125,0 z m -6.78125,0.031 c -2.8,0 -4.8125,2.1875 -4.8125,5.1874 0,3 2.0125,5.21879996 4.8125,5.21879996 l 4.78125,0 0,-5.21879996 c 0,-3 -1.98125,-5.1875 -4.78125,-5.1874 z m 31.78125,0 c -2.76142,0 -5,2.3156 -5,5.1874 0,2.8719 2.23858,5.21879996 5,5.21879996 2.76142,0 5,-2.34679996 5,-5.21879996 0,-2.8718 -2.23858,-5.1875 -5,-5.1874 z m 5.1875,0.4062 3.46875,4.8438 -3.65625,5.15619996 2.4375,0 2.46875,-3.43749996 2.4375,3.43749996 2.46875,0 -3.6875,-5.15619996 3.46875,-4.8438 -2.46875,0 -2.21875,3.125 -2.25,-3.125 z m -28.1875,1.5625 1.8125,0 c 1.82144,0 3,1.5366 3,3.2187 0,1.6822 -1.3163,3.1876 -3,3.1876 l -1.8125,0 z m -8.78125,0.031 c 1.6,0 2.78125,1.366 2.78125,3.1874 l 0,3.2188 -2.78125,0 c -1.6,0 -2.8125,-1.4213 -2.8125,-3.2188 0,-1.7999 1.2125,-3.1875 2.8125,-3.1874 z m 18.78125,0 1.8125,0 c 1.6837,0 3,1.5052 3,3.1874 0,1.6821 -1.17854,3.2188 -3,3.2188 l -1.8125,0 z m 13,0 c 1.65686,0 3,1.4202 3,3.1874 0,1.7673 -1.34314,3.2188 -3,3.2188 -1.65686,0 -3,-1.4514 -3,-3.2188 0,-1.7672 1.34314,-3.1875 3,-3.1874 z"
         id="path3737"
         sodipodi:nodetypes="cccccccccscccccccssscccccccccsscccsscsccssscccccccccccccccssscccscssccssscccsssc" />
      <path
         style="font-size:medium;font-style:normal;font-variant:normal;font-weight:normal;font-stretch:normal;text-indent:0;text-align:start;text-decoration:none;line-height:normal;letter-spacing:normal;word-spacing:normal;text-transform:none;direction:ltr;block-progression:tb;writing-mode:lr-tb;text-anchor:start;baseline-shift:baseline;color:#000000;fill:#ffffff;fill-opacity:1;fill-rule:nonzero;stroke:none;stroke-width:40;marker:none;visibility:visible;display:inline;overflow:visible;enable-background:accumulate;font-family:Sans;-inkscape-font-specification:Sans"
         d="m 65.656538,-22.637803 c -0.229454,-0.0012 -0.461382,0.06066 -0.662878,0.170455 l -12.27272,6.76136 c -0.212588,0.116734 -0.387765,0.283939 -0.511365,0.492424 -0.1236,0.20848 -0.188992,0.458231 -0.189393,0.700757 l 0,13.74999199 c 6.06e-4,0.48505462 0.275583,0.95972106 0.700758,1.1931818 L 64.99366,7.1917262 c 0.20006,0.1098178 0.434787,0.1704543 0.662878,0.1704543 0.228103,0 0.462823,-0.060637 0.662878,-0.1704543 L 78.592137,0.43036679 c 0.425175,-0.23346074 0.699964,-0.70812718 0.700756,-1.1931818 l 0,-13.74999199 c -3.68e-4,-0.242526 -0.06579,-0.492277 -0.189392,-0.700757 -0.123596,-0.208485 -0.298777,-0.37569 -0.511364,-0.492424 l -12.272721,-6.76136 c -0.199001,-0.108417 -0.436255,-0.170381 -0.662878,-0.170455 z m 0,2.765151 c 0.05775,6.06e-4 0.113467,0.01504 0.189393,0.05678 0.750449,0.413333 1.504654,0.83429 2.253789,1.25 0.207701,0.115254 0.28409,0.283454 0.28409,0.549241 l 0,1.23106 c 0,0.262455 -0.08238,0.434516 -0.28409,0.549243 l -0.662879,0.397726 0,0.28409 c 0,0.409092 -0.146177,0.549245 -0.549243,0.549245 l -0.170456,0 -1.136362,-1.344698 c -0.118316,-0.139902 -0.189394,-0.231824 -0.189394,-0.492423 l 0,-2.670454 c 0,-0.198769 0.09198,-0.361757 0.265152,-0.359848 z m -1.439392,0.795455 c 0.131447,0.0099 0.208332,0.142399 0.208332,0.359848 l 0,0.757575 c 0,0.205734 -0.03788,0.298715 -0.113637,0.397727 l -0.89015,1.060604 -0.151517,0.170456 c -0.150791,0.179934 -0.340908,0.122716 -0.340908,-0.132575 l 0,-1.55303 c 0,-0.259873 0.06426,-0.448801 0.265152,-0.549241 l 0.871212,-0.473486 c 0.05382,-0.02944 0.107703,-0.04115 0.151516,-0.03788 z m -2.5,1.363636 c 0.145018,-0.01199 0.265153,0.09264 0.265153,0.321969 l 0,2.594694 1.212119,0.681819 c 0.208066,0.114581 0.284092,0.283453 0.284092,0.549242 l 0,0.492424 -0.871212,0.492424 -0.928029,-1.117423 -1.723486,0.946968 c -0.338024,0.18615 -0.425285,0.378824 -0.07576,0.568182 l 1.401516,0.757576 c 0.208072,0.114586 0.28409,0.302393 0.28409,0.56818 l 0,0.284091 0.681817,0.378787 0,-0.984848 c 0,-0.272727 -0.01067,-0.443211 0.284092,-0.60606 l 1.382573,-0.776513 1.28788,1.534089 -1.666665,0.92803 c -1.098273,1.3105929 -2.18883,2.6169613 -3.295454,3.9204516 -0.133521,0.1586004 -0.276362,0.2098365 -0.416665,0.1325763 -0.772566,-0.4254491 -1.411157,-0.7784363 -2.15909,-1.193181 l -1.420456,1.7424222 c 0.544316,0.2991999 1.085819,0.5885152 1.628787,0.8901513 0.207655,0.1153578 0.284092,0.2834548 0.284092,0.5492424 l 0,1.0037874 2.859848,1.5719689 c 0.523528,0.2873872 0.89015,1.34469634 0.89015,1.34469634 l 2.14015,1.17424116 c 0.208079,0.1145818 0.284092,0.3023938 0.284092,0.5681814 l 0,0.4924241 c -0.008,0.2324241 -0.03976,0.4194057 -0.208334,0.5113632 l -0.890152,0.4924242 c -0.120952,0.066006 -0.280055,0.045818 -0.397727,-0.01891 L 57.701993,0.25991196 C 57.493931,0.14532381 57.417902,-0.04248192 57.417902,-0.30827027 l 0,-0.17045464 1.231059,-1.45833159 -3.617422,-1.9886359 c -0.208067,-0.1145812 -0.28409,-0.2804418 -0.28409,-0.5492413 l 0,-6.7424213 0,-0.776514 0,-1.136364 0,-0.378787 c 0,-0.265789 0.07603,-0.453594 0.28409,-0.568181 l 0.26515,-0.132577 c 2.114673,-1.161192 6.268937,-3.446967 6.268937,-3.446967 0.05037,-0.02769 0.103176,-0.05285 0.151516,-0.05678 z m 11.363629,1.950754 c 0.08205,0 0.179449,0.03837 0.321971,0.113637 0.956387,0.528534 1.921248,1.045539 2.878786,1.57197 0.208073,0.114587 0.28409,0.302393 0.28409,0.568181 l 0,6.5530266 -0.492424,-0.5681824 c -0.151818,-0.1797935 -0.303745,-0.1873146 -0.473484,-0.0947 l -0.58712,0.3219698 1.344696,1.5909079 c 0.130194,0.1545815 0.208332,0.2370477 0.208332,0.5113632 l 0,3.4280285 c 0,0.2657875 -0.07599,0.4347143 -0.28409,0.5492414 l -3.674241,2.02651404 c -0.156878,0.086345 -0.315156,0.07014 -0.454546,-0.094697 C 71.65685,0.12801673 71.07828,-0.52709181 70.52396,-1.1984247 c -0.409182,0.22629027 -0.820934,0.47387203 -1.23106,0.68181769 -0.209249,0.1060965 -0.344081,0.11306058 -0.549242,0 -0.362201,-0.19959378 -0.754357,-0.4109511 -1.155305,-0.64393949 -0.205375,-0.1193394 -0.28409,-0.2834539 -0.28409,-0.5492415 -0.0012,-0.6519213 -0.02018,-1.3053387 -0.01891,-1.9696959 3.77e-4,-0.2220124 0.09223,-0.4531641 0.284092,-0.6818176 l 2.178029,-2.5946955 -0.814394,0 c -0.272727,0 -0.549243,-0.2765153 -0.549243,-0.5492423 l 0,-0.7575759 c 0,-0.2657874 0.07625,-0.4342417 0.284092,-0.5492414 0.13352,-0.073882 0.681819,-0.3787878 0.681819,-0.3787878 l -0.01891,-1.5151496 c -4.91e-4,-0.19065 0.06319,-0.427484 0.284091,-0.549243 l 2.045453,-1.117424 0,-2.272726 c 0,-0.265786 0.07639,-0.433968 0.28409,-0.549241 0.254239,-0.140957 0.565007,-0.315921 0.852273,-0.473484 0.123788,-0.0655 0.198824,-0.0947 0.284092,-0.0947 z m -3.33333,8.8068146 1.51515,0.8333321 3.257574,-1.7992414 0,-1.6666652 -1.21212,0.6628787 c -0.169444,0.093765 -0.340946,0.1007447 -0.492425,-0.075764 L 72.39896,-9.5128148 c -0.133523,-0.1586051 -0.287177,-0.1927695 -0.435608,-0.132575 l -1.590908,0.871211 z"
         id="path3739"
         inkscape:connector-curvature="0"
         sodipodi:nodetypes="ccccccccsccccccccccsssccssccsscccsscccssccccsccsccccccsccsccccccccssccccscccccscccscccscccccsccscccccssccscsccccccssscccccsccscccccccccc"
         inkscape:export-filename="/Users/saman/Dropbox/mapbox-redesign/sketch.png"
         inkscape:export-xdpi="90"
         inkscape:export-ydpi="90" />
    </g>
  </g>
</svg>
